<mxfile host="app.diagrams.net" modified="2023-04-26T12:50:32.586Z" agent="Mozilla/5.0 (Windows NT 10.0; Win64; x64) AppleWebKit/537.36 (KHTML, like Gecko) Chrome/112.0.0.0 Safari/537.36" version="21.2.2" etag="ysjxiLoCVE7f6WRz7Rw9" type="github">
  <diagram name="Page-1" id="2Ni0hgeVLVOAc_u6AL8m">
    <mxGraphModel>
      <root>
        <mxCell id="0" />
        <mxCell id="1" parent="0" />
      </root>
    </mxGraphModel>
  </diagram>
</mxfile>
